<svg preserveAspectRatio="none" width="100%" height="100%" overflow="visible" style="display: block;" viewBox="0 0 19.5 19.5" fill="none" xmlns="http://www.w3.org/2000/svg">
<path id="Vector" d="M6.90813 3.46232L6.50548 2.55634C6.2422 1.96397 6.11056 1.66777 5.91368 1.4411C5.66695 1.15703 5.34535 0.948034 4.98555 0.837944C4.69846 0.750094 4.37434 0.750094 3.72609 0.750094C2.77779 0.750094 2.30363 0.750094 1.90561 0.932384C1.43675 1.14711 1.01331 1.61337 0.844606 2.10069C0.701386 2.51438 0.742406 2.93952 0.824456 3.78979C1.69779 12.8403 6.65969 17.8022 15.7102 18.6755C16.5605 18.7576 16.9856 18.7986 17.3993 18.6554C17.8866 18.4867 18.3529 18.0632 18.5676 17.5944C18.7499 17.1963 18.7499 16.7222 18.7499 15.7739C18.7499 15.1256 18.7499 14.8015 18.6621 14.5144C18.552 14.1546 18.343 13.833 18.0589 13.5863C17.8322 13.3894 17.536 13.2578 16.9436 12.9945L16.0377 12.5918C15.3961 12.3067 15.0754 12.1642 14.7494 12.1332C14.4375 12.1035 14.123 12.1473 13.831 12.261C13.5259 12.3798 13.2562 12.6045 12.7169 13.0539C12.18 13.5013 11.9116 13.725 11.5836 13.8448C11.2929 13.951 10.9085 13.9904 10.6022 13.9452C10.2568 13.8943 9.99218 13.753 9.46318 13.4702C7.81708 12.5906 6.90941 11.6829 6.02974 10.0368C5.74702 9.50779 5.60566 9.24319 5.55475 8.89779C5.50962 8.59149 5.54896 8.20709 5.65518 7.91639C5.775 7.58837 5.99869 7.31995 6.44607 6.78309C6.8955 6.24377 7.12022 5.97411 7.23903 5.669C7.35273 5.37703 7.39649 5.06249 7.36682 4.75057C7.33582 4.42461 7.19326 4.10385 6.90813 3.46232Z" stroke="var(--stroke-0, white)" stroke-width="1.5" stroke-linecap="round"/>
</svg>
