<svg width="32" height="32" viewBox="0 0 32 32" fill="none" xmlns="http://www.w3.org/2000/svg">
<rect width="32" height="32" rx="16" fill="#673FED" fill-opacity="0.1"/>
<path d="M19.333 19.75L22.6663 23.0833" stroke="url(#paint0_linear_1_7476)" stroke-width="1.5" stroke-linecap="round" stroke-linejoin="round"/>
<path d="M20.9997 15.5833C20.9997 18.805 18.388 21.4166 15.1663 21.4166C11.9447 21.4166 9.33301 18.805 9.33301 15.5833C9.33301 12.3617 11.9447 9.75 15.1663 9.75" stroke="url(#paint1_linear_1_7476)" stroke-width="1.4" stroke-linecap="round" stroke-linejoin="round"/>
<path d="M18.9167 8.91699L19.1316 9.49785C19.4134 10.2595 19.5543 10.6403 19.8322 10.9182C20.11 11.196 20.4908 11.3369 21.2525 11.6187L21.8333 11.8337L21.2525 12.0486C20.4908 12.3304 20.11 12.4714 19.8322 12.7492C19.5543 13.027 19.4134 13.4078 19.1316 14.1695L18.9167 14.7503L18.7017 14.1695C18.4199 13.4078 18.279 13.027 18.0012 12.7492C17.7233 12.4714 17.3425 12.3304 16.5808 12.0486L16 11.8337L16.5808 11.6187C17.3425 11.3369 17.7233 11.196 18.0012 10.9182C18.279 10.6403 18.4199 10.2595 18.7017 9.49785L18.9167 8.91699Z" stroke="url(#paint2_linear_1_7476)" stroke-linecap="round" stroke-linejoin="round"/>
<defs>
<linearGradient id="paint0_linear_1_7476" x1="20.9996" y1="19.75" x2="20.9996" y2="23.0833" gradientUnits="userSpaceOnUse">
<stop stop-color="#27ACFF"/>
<stop offset="0.504808" stop-color="#A000E9"/>
<stop offset="1" stop-color="#673FED"/>
</linearGradient>
<linearGradient id="paint1_linear_1_7476" x1="15.1663" y1="9.75" x2="15.1663" y2="21.4166" gradientUnits="userSpaceOnUse">
<stop stop-color="#27ACFF"/>
<stop offset="0.504808" stop-color="#A000E9"/>
<stop offset="1" stop-color="#673FED"/>
</linearGradient>
<linearGradient id="paint2_linear_1_7476" x1="18.9167" y1="8.91699" x2="18.9167" y2="14.7503" gradientUnits="userSpaceOnUse">
<stop stop-color="#27ACFF"/>
<stop offset="0.504808" stop-color="#A000E9"/>
<stop offset="1" stop-color="#673FED"/>
</linearGradient>
</defs>
</svg>
